PathFileType	4	(X/Y/Z)	C:\Users\WrightLab\Desktop\Jo\P1_boxCal23.trc
DataRate	CameraRate	NumFrames	NumMarkers	Units	OrigDataRate	OrigDataStartFrame	OrigNumFrames
100.00	100.00	       15	19	mm	100.00	439	       701
Frame#	Time	Headset_Front			Headset_Back			Headset_Left			Headset_Right			Left_Shoulder			Right_Shoulder			Sternum			C7			Left Elbow			Right Elbow			Left Wrist			Right Wrist			Left ASIS			Right ASIS			S2			Left Knee			Right Knee			Left Ankle			Right Ankle			
		X1	Y1	Z1	X2	Y2	Z2	X3	Y3	Z3	X4	Y4	Z4	X5	Y5	Z5	X6	Y6	Z6	X7	Y7	Z7	X8	Y8	Z8	X9	Y9	Z9	X10	Y10	Z10	X11	Y11	Z11	X12	Y12	Z12	X13	Y13	Z13	X14	Y14	Z14	X15	Y15	Z15	X16	Y16	Z16	X17	Y17	Z17	X18	Y18	Z18	X19	Y19	Z19	

439	4.380	-433.15756	1379.86597	151.02319	-620.65979	1500.58044	183.13399	-634.54291	1395.62134	49.39508	-448.95111	1302.89001	21.38027	-751.46259	1268.19055	75.54600	-488.25705	1248.10974	343.20938	-545.68762	1123.69971	158.65088	-708.72705	1301.63452	282.18942	-864.80139	973.25787	6.95097	-501.86420	997.81836	482.62488	-833.06781	830.80084	-174.78633	-438.48337	755.81250	501.26575	-644.91895	855.81763	91.12264	-519.60938	847.80444	256.89081	-827.65948	938.74152	377.85648	-761.17560	463.55759	116.22491	-594.04755	451.25058	399.94144	-765.18018	82.95946	192.05276				
440	4.390	-433.85022	1380.82605	147.01958	-620.65399	1500.99805	185.40085	-637.42627	1397.46594	51.05286	-452.21686	1304.94458	18.11836	-754.45709	1269.77234	78.90039	-483.92795	1246.14111	340.27615				-706.51770	1301.14331	284.56915	-875.13489	976.15057	15.42751	-495.94180	996.06439	480.17453	-843.92230	832.36523	-167.56906	-434.04123	754.31427	498.24722	-646.68726	856.57904	91.14356	-518.79639	847.26312	252.43616	-824.89056	937.99817	377.75430	-759.62115	465.14597	109.87605	-592.19116	450.27603	398.24841	-768.45728	85.05643	189.55957				
441	4.400	-434.07693	1382.09436	144.37196	-620.22314	1501.40613	186.90485	-639.87421	1398.74988	53.05013	-456.51465	1306.90491	15.91500	-757.71429	1271.20789	81.37518	-481.29620	1244.26953	336.97833				-704.18524	1300.66650	286.12823	-885.47968	979.23834	24.10205	-490.77740	994.10474	476.43271	-854.34064	835.04468	-160.63185	-429.74911	752.62244	495.48480	-647.01904	857.14484	86.95013	-518.53381	846.64667	250.09691	-822.63196	937.06610	378.01172	-758.59491	466.97842	105.17153	-589.59473	449.16016	395.34082	-771.65039	85.94827	188.21378				
442	4.410	-434.99884	1382.67310	140.97589	-620.28625	1501.90845	188.78958	-642.48572	1399.85950	54.76071	-459.45038	1308.72668	11.54940	-760.34662	1272.04175	84.55644	-479.13651	1243.42175	334.29797				-701.92145	1300.59277	287.69818	-895.59796	982.41046	32.22588	-485.66412	992.28802	472.27094	-864.66766	836.67517	-152.80023	-425.22794	751.78461	492.67239	-649.30554	858.55542	86.00612	-517.60754	846.09052	244.94035	-820.37122	936.28320	377.85199	-757.30505	469.10571	100.27132	-587.39191	447.97623	391.62573	-775.43933	89.02982	185.54617				
443	4.420	-435.71329	1383.52563	138.27919	-619.95227	1502.55054	190.31258	-645.36755	1401.66614	55.13556	-463.08047	1309.77527	8.60191	-763.42853	1273.30981	87.29211	-475.96393	1242.38184	331.10538	-549.08655	1126.84521	145.36224	-699.22058	1299.94495	288.80353	-905.37970	985.57184	40.34576	-480.47342	990.49976	467.89139	-874.35016	839.42847	-145.16675	-420.71301	750.74524	489.12292	-649.36115	858.27917	82.94739	-517.32178	846.44904	241.19232	-818.27069	935.25580	377.66803	-757.04858	471.40399	95.55577	-585.70923	446.82529	387.86157	-778.96771	91.67945	183.16899				
444	4.430	-434.29742	1385.09656	133.99300	-619.66498	1502.94666	191.58698	-647.27106	1403.13147	55.89426	-467.21005	1312.06445	5.28267	-766.20569	1274.21765	90.02901	-473.58163	1241.84180	327.16681	-550.50323	1127.82483	141.36836	-697.85938	1299.46838	290.00107	-915.36395	988.78479	49.48408	-475.14517	989.12256	462.84656	-883.19165	840.93970	-135.26411	-416.03439	750.64447	485.85913	-650.03302	858.57458	80.23700	-517.29303	846.59247	237.13765	-816.25732	934.37262	377.32947	-756.49329	473.26877	91.15366	-583.06647	445.46286	383.79340	-782.08563	94.27257	179.51300				
445	4.440	-437.83469	1384.16589	130.80478	-619.41797	1503.33350	192.58781	-649.64258	1405.29285	57.35817	-471.00772	1314.10791	1.65944	-769.40991	1276.22620	91.64245	-471.17691	1240.87646	322.93649	-552.11639	1127.75916	139.49762	-696.21326	1298.99744	290.68274	-923.23657	992.35333	57.91300	-471.23132	987.42493	456.43408	-892.01837	842.67133	-127.76820	-411.27585	750.05231	481.42114	-652.33856	858.76678	78.96882	-517.29175	845.89679	233.18369	-813.45874	933.58514	376.83728	-755.83319	474.90228	86.61750	-582.78387	443.89496	379.88141	-784.52838	96.58036	175.67369				
446	4.450	-439.59985	1384.50439	127.74136	-619.42706	1503.92395	193.54414	-652.71497	1407.05273	56.43913	-474.26474	1315.38403	-0.57212	-771.36725	1276.36792	94.57499	-468.99619	1240.59387	318.77652	-553.37305	1128.08911	136.45988	-694.50836	1298.57874	291.33063	-930.11096	994.89178	67.47262	-466.32629	986.07483	450.93719	-900.91528	844.73218	-118.51657	-406.64505	749.74707	476.91299	-653.07727	859.53473	76.41635	-517.62640	847.07306	228.14459	-811.31915	932.67896	376.42212	-756.06909	476.25232	82.63353	-580.43604	443.29208	375.66016	-787.91608	99.53436	171.21591				
447	4.460	-440.67206	1385.08325	124.00720	-619.39612	1504.30896	194.21378	-655.32837	1409.41113	56.51068	-478.26572	1317.13489	-5.08787	-773.92096	1277.07727	96.08933	-467.36191	1240.13196	314.78320	-555.28009	1128.92053	132.94174	-692.48706	1297.80603	291.44492	-935.73352	997.21869	77.17982	-462.24176	984.51813	444.70349	-909.32373	845.32220	-109.54297	-401.75189	749.92444	471.48798	-654.46454	860.56390	70.56415	-517.70923	847.45264	224.53091	-808.75500	931.57910	376.20285	-756.28845	477.85284	78.23630	-579.72089	441.67352	370.67078	-791.33313	101.85511	164.69936				
448	4.470	-442.32376	1385.56848	121.14021	-619.26056	1504.67993	194.26880	-657.69525	1411.26929	57.24573	-482.01215	1318.78760	-8.22633	-776.93518	1278.61108	98.24555	-465.87717	1239.86108	310.65594	-556.85309	1129.40015	130.23778	-691.25903	1297.54602	291.41034	-940.28284	998.71344	87.78263	-458.55978	984.07294	438.53156	-917.12335	845.96790	-99.54955	-398.56265	749.68842	465.51257	-654.73236	861.39813	66.74240	-518.30688	847.78204	219.09248	-805.53510	930.37036	375.41476	-756.29272	479.13538	73.80991	-577.76794	442.03891	366.09695	-795.33643	102.55818	159.93938				
449	4.480	-441.79507	1386.74951	117.83034	-619.46869	1505.34436	194.49269	-660.13739	1412.52271	56.45476	-485.70889	1320.24646	-11.71731	-779.44989	1279.07043	98.92093	-464.49777	1239.73706	306.30966	-558.78839	1130.47046	125.75314	-690.37024	1297.20093	291.55475	-943.47699	1000.43689	97.46783	-455.13919	982.65656	431.41150	-925.15118	846.26801	-88.74594	-392.94165	750.40570	460.26709	-656.34863	862.13245	63.02373	-518.30859	848.33148	214.01360	-803.22699	929.48218	374.12021	-757.75641	480.25171	69.36012	-577.08209	440.76071	361.17288	-798.78137	104.15062	152.54028				
450	4.490	-443.11838	1387.52747	113.70713	-619.83862	1505.67700	194.30986	-662.33746	1414.10205	57.43266	-489.84622	1322.18042	-15.53201	-781.70947	1279.74072	100.67893	-462.65723	1239.62292	301.76788	-560.45557	1131.58057	122.07875	-688.82056	1296.25720	291.54141	-945.53217	1000.84332	107.11613	-451.95355	981.57397	425.47220	-934.50012	846.80017	-79.70850	-388.91632	750.69360	453.99564	-658.49182	862.72034	60.89460	-518.64227	849.88763	208.06081	-799.67682	927.97607	373.55695	-759.04950	481.49359	65.01445	-574.74481	440.23834	357.06204	-802.74957	104.74445	146.30952				
451	4.500	-444.94568	1387.96851	110.39857	-619.81927	1505.96838	194.13028	-664.95673	1415.21985	56.62137	-493.19919	1323.73083	-18.99366	-785.20990	1280.45190	100.52860	-461.26791	1239.94995	297.46930	-563.53156	1133.00134	116.26389	-687.93066	1295.91406	291.19012	-946.64862	1001.09735	115.88300	-449.03650	981.02753	419.97495	-941.86377	845.95441	-69.74554	-384.86218	751.25104	447.50412	-660.45319	864.26404	56.42374	-519.26447	850.89880	202.53627	-797.78693	928.06323	372.15802	-761.36621	483.09537	59.50485	-573.95258	439.95401	352.38889	-805.90594	106.31049	137.49959				
452	4.510	-447.20969	1388.41443	105.48197	-620.51239	1506.28394	193.72839	-667.63116	1416.37964	56.80656	-496.82538	1325.02234	-22.46396	-786.86768	1280.80042	103.19267	-459.94833	1240.14856	292.23502	-564.06952	1133.81421	114.72363	-686.56201	1295.54370	290.60992	-947.44800	1000.72668	124.50216	-446.80035	980.18781	413.51843	-949.54437	845.29413	-59.83595	-381.62579	750.91620	439.19196	-662.08832	865.62988	52.91285	-519.99414	850.95972	197.26605	-795.44550	926.74670	371.18228	-763.93463	483.89236	55.33695	-572.26672	439.41040	348.35019	-809.51227	105.92024	129.28683				
453	4.520	-449.31613	1389.21423	101.47108	-621.06372	1506.50317	193.11278	-669.62665	1417.41040	56.26313	-500.98044	1327.08911	-26.20760	-789.62915	1281.01501	104.59849	-458.07834	1239.75378	286.79703	-567.27209	1134.88904	108.22652	-685.85638	1295.32874	289.77554	-946.18915	999.02448	133.19589	-443.98059	979.69324	407.27551	-956.96533	843.80634	-50.51915	-377.22162	751.27606	432.83542	-664.53156	867.53955	49.26574	-520.32190	852.18060	191.51122	-792.27795	925.84894	369.73059	-766.75714	484.32111	50.64070	-571.61737	439.62769	344.23389	-812.73297	106.62640	120.47197				
